<?xml version="1.0" encoding="UTF-8"?>
<svg id="Camada_1" data-name="Camada 1" xmlns="http://www.w3.org/2000/svg" viewBox="0 0 261 68">
  <defs>
    <style>
      .cls-1 {
        fill: #fff;
      }

      .cls-2 {
        fill: #ff6b01;
      }

      .cls-3 {
        fill: #515151;
      }
    </style>
  </defs>
  <g>
    <path class="cls-1" d="m78.03,41.75c-.16-.44-.55-.77-1.02-.85-.06-.01-.12-.02-.18-.02l.22-.35c1.01-1.58,1.52-3.38,1.46-5.21-.06-1.96-.76-3.82-1.99-5.36.49-.14.86-.54.95-1.04.41-2.32.16-4.41-.75-6.05-.82-1.48-2.15-2.57-3.89-3.17.21-3.25-1.72-6.26-4.02-7.5-.2-.11-.41-.16-.63-.16-.16,0-.32.03-.48.09,0,0-.02,0-.02,0l.02-.11c.12-.59.17-1.19.15-1.77-.07-2.16-1.01-4.17-2.65-5.66-1.62-1.47-3.74-2.28-5.97-2.28-.1,0-.19,0-.29,0-3.56.11-6.57,2.26-7.8,5.23-.86-3.14-3.47-5.2-6.87-5.2h0c-.09,0-.18,0-.26,0-2.69.09-4.67,1.18-5.89,3.26-.05,0-.11,0-.17,0-2.62,0-5.47,2.11-6.23,4.61-.17.57-.28,1.13-.32,1.71,0,0,0,0-.01,0-.17-.08-.35-.11-.54-.11-.26,0-.52.08-.75.23-2.18,1.49-3.67,3.71-4.2,6.26-.42,2.04-.19,4.08.64,5.73-.31.65-.49,1.32-.54,2.01-.17-.21-.4-.37-.67-.45-.12-.03-.24-.05-.36-.05-.43,0-.84.21-1.09.58-2.46,3.62-3.06,7.48-1.73,11.17.32.89.75,1.75,1.29,2.58-.46.08-.84.39-1.01.83-1.45,3.79-.55,6.34.46,7.8.71,1.03,1.73,1.87,2.91,2.46,0,0,0,0,0,0-.33.18-.56.5-.64.86-.48,2.13.19,4.67,1.76,6.63,1.6,2,3.88,3.1,6.43,3.1.75,0,1.52-.09,2.31-.28.5,1.22,1.36,2.3,2.49,3.13,1.46,1.07,3.3,1.66,5.17,1.66,2.54,0,4.9-1.07,6.64-3.02.67-.74,1.19-1.56,1.58-2.42.36,1.28,1.09,2.44,2.12,3.38,1.45,1.32,3.36,2.05,5.37,2.05.09,0,.17,0,.26,0,2.94-.09,5.53-1.72,6.8-4.25,1.37-.5,2.56-1.42,3.37-2.61.25-.36.3-.82.14-1.22,2.47-.03,4.93-1.54,6.74-4.14,2.49-3.58,3.14-8.2,1.71-12.08Z"/>
    <g>
      <g>
        <path class="cls-2" d="m48.91,49.2c-.17,0-.33-.04-.48-.13-.49-.29-.98-.54-1.46-.79-.99-.51-2.03-1.04-2.85-1.77-2.12-1.87-2.35-3.63-2.51-4.91-.15-1.18-.3-1.91-1.51-2.13-3.71-.67-4.38-2.75-4.72-4.65-.38-2.13.4-4.46,1.08-5.43.02-.03.03-.05.02-.07,0,0-.02-.02-.03-.03-.04-.02-.07-.03-.1-.03-.06,0-.11.02-.14.06,0,0-.79,1.06-1.13,2.73-.08.43-.45.74-.88.76-.13,0-.26,0-.39,0h0c-2.87,0-5.52-1.5-6.77-3.82-.87-1.63-.89-3.42-.07-4.99-1.78-3.36-.92-8.75,3.35-11.67.16-.11.35-.17.53-.17.13,0,.26.03.38.08.28.12.48.38.54.67-.06-.88.04-1.75.3-2.61.63-2.1,3.14-4.34,5.87-4.34.13,0,.25,0,.38.02,1.15-2.09,3.06-3.19,5.69-3.27.08,0,.17,0,.25,0,3.87,0,6.67,2.83,6.8,6.88.05,1.7-.54,3.38-1.66,4.71l-.02.02.02.02c.91,1.17,1.42,2.56,1.47,4.02.06,1.74-.56,3.44-1.74,4.79l-.02.03.02.02c1,1.22,1.56,2.67,1.61,4.2.03,1.02-.17,2.06-.6,3.02-.01.03-.03.06-.05.09-.74,1.26-2.14,2.01-3.06,2.01-.04,0-.07,0-.11,0-1.7-.09-2.96-.63-3.85-1.67-1.25-1.46-1.18-3.65-1.13-4.96,0-.12,0-.24.01-.34.02-1.06.13-2,.26-3.2l.06-.59c.26-2.47.56-5.27.3-6.44-.73-3.23-2.58-3.9-4-3.9-.05,0-.09,0-.14,0-.07,0-.11.03-.12.05,0,0-.02.02-.02.03,0,.02.05.07.14.07.07,0,.14,0,.22,0,1.27,0,2.94.65,3.65,3.77.24,1.08.02,3.45-.3,6.43-.15,1.45-.24,2.48-.32,3.77,0,.13-.02.27-.03.42-.11,1.28-.27,3.21,1.17,4.93.96,1.15,2.36,1.76,4.06,1.78h0c.38,0,.77-.06,1.07-.16.1-.03.2-.05.3-.05.19,0,.38.06.55.17.24.17.39.45.4.75.02.86-.06,1.71-.22,2.53h0s.01.02.01.02c1.4,1.81,2.18,3.96,2.25,6.21.06,1.78-.58,4.69-1.43,6.49-.11.24-.32.42-.58.5-.09.03-.19.04-.28.04ZM32.29,15.21c.41,1.3,1.08,2.74,2.2,4.08.45.54.93,1.02,1.43,1.44.04.03.09.04.11.04.03,0,.09,0,.13-.05,0-.01.02-.02.02-.03,0,0,0-.02-.02-.03-.49-.41-.96-.89-1.41-1.42-1.16-1.39-1.97-2.72-2.46-4.02Z"/>
        <path class="cls-1" d="m44.27,3.67c3.34,0,5.74,2.42,5.85,5.96.05,1.47-.46,2.91-1.44,4.07l-.51.61.49.63c.79,1.01,1.23,2.21,1.27,3.47.05,1.5-.49,2.97-1.51,4.14l-.55.63.53.64c.87,1.05,1.35,2.3,1.39,3.62.03.9-.15,1.78-.52,2.6-.6,1.02-1.7,1.54-2.25,1.54-.02,0-.03,0-.05,0-1.45-.08-2.49-.52-3.19-1.34-1.12-1.3-.92-3.48-.9-4.66.03-1.18.16-2.24.32-3.71.28-2.67.58-5.43.28-6.75-.91-3.99-3.4-4.64-4.92-4.64-.06,0-.11,0-.17,0-.6.02-1.07.49-1.05,1.05.02.55.5.99,1.08.99.01,0,.02,0,.04,0,.05,0,.11,0,.18,0,.7,0,2.08.21,2.72,3.03.23,1.01-.07,3.84-.32,6.12-.16,1.47-.24,2.5-.33,3.81-.09,1.3-.52,3.79,1.35,6.02,1.08,1.3,2.69,2.1,4.77,2.12.01,0,.03,0,.04,0,.48,0,.96-.08,1.34-.21.02.77-.05,1.55-.2,2.32l-.09.43.28.36c1.28,1.65,1.99,3.61,2.05,5.66.05,1.66-.58,4.43-1.34,6.05-.51-.3-1.02-.56-1.51-.82-.99-.51-1.92-.99-2.65-1.63-1.85-1.63-2.05-3.13-2.2-4.32-.14-1.09-.33-2.58-2.28-2.93-3.07-.55-3.63-2.04-3.96-3.89-.33-1.84.38-3.94.92-4.72.33-.47.24-1.09-.25-1.42-.19-.13-.41-.19-.63-.19-.34,0-.67.15-.89.43-.06.07-.93,1.25-1.3,3.12-.11,0-.23,0-.34,0-4.58,0-8.09-4.32-5.74-7.87-1.88-2.86-1.35-8.06,2.78-10.89.25,1.79.94,4.42,2.9,6.77.49.58,1.01,1.11,1.55,1.56.21.17.46.26.72.26.01,0,.02,0,.04,0,.29,0,.57-.13.78-.34.4-.42.36-1.07-.09-1.44-.45-.37-.88-.81-1.29-1.3-2.74-3.28-3.14-5.87-2.48-8.03.55-1.83,2.79-3.67,4.96-3.67.31,0,.62.04.92.12,1-2.31,2.79-3.3,5.18-3.38.07,0,.15,0,.22,0m0-1.89h0c-.09,0-.19,0-.28,0-2.74.09-4.85,1.21-6.18,3.26-2.85.07-5.8,2.29-6.62,5.01-.12.39-.21.79-.27,1.19-.02,0-.03,0-.05,0-.38,0-.75.11-1.07.33-2.31,1.58-3.88,3.92-4.43,6.61-.42,2.06-.22,4.13.57,5.85-.75,1.74-.66,3.67.29,5.43,1.41,2.63,4.39,4.32,7.6,4.32.14,0,.29,0,.43-.01.03,0,.06,0,.08,0,0,.41.04.82.12,1.23.41,2.26,1.37,4.68,5.48,5.42.48.09.58.1.74,1.31.18,1.36.44,3.4,2.83,5.5.91.8,1.99,1.36,3.04,1.9.47.24.95.49,1.41.76.29.17.63.26.96.26.19,0,.38-.03.56-.08.51-.16.93-.52,1.15-1,.91-1.94,1.58-4.98,1.52-6.92-.07-2.32-.83-4.53-2.2-6.43.13-.76.18-1.54.17-2.33,0-.38-.13-.74-.34-1.04.43-.36.82-.81,1.13-1.34.03-.06.07-.12.09-.18.48-1.08.72-2.27.68-3.43-.05-1.5-.52-2.93-1.37-4.17,1.04-1.42,1.57-3.13,1.51-4.86-.05-1.42-.48-2.79-1.25-3.99.99-1.41,1.5-3.08,1.45-4.79-.07-2.19-.87-4.17-2.25-5.58-1.41-1.43-3.36-2.22-5.49-2.22h0Z"/>
      </g>
      <g>
        <path class="cls-2" d="m43.3,65.68c-3.45,0-6.41-1.99-7.43-4.86-.87.23-1.72.35-2.54.35-2.43,0-4.61-1.05-6.14-2.95-1.48-1.85-2.14-4.32-1.69-6.31.06-.26.22-.48.46-.62.14-.08.3-.12.47-.12.1,0,.2.02.3.05.87.29,1.78.44,2.71.44.09,0,.19,0,.28,0,.26,0,.52-.03.79-.06.07,0,.1-.04.11-.05,0-.04-.05-.09-.14-.09-.28.03-.56.05-.84.05-2.57,0-5.1-1.26-6.44-3.21-.96-1.39-1.81-3.82-.42-7.45.13-.33.43-.56.78-.6.03,0,.07,0,.1,0,.32,0,.61.16.79.43,1.91,2.89,5.02,5.03,9.26,6.34,1.65.51,2.9,2.24,2.91,4.01.01,1.15-.49,3.24-3.98,4.41-.06.02-.07.05-.08.06.01.05.07.08.13.08.03,0,.04,0,.06,0,1.25-.42,2.23-.99,2.93-1.7.18-.18.42-.28.67-.28.03,0,.06,0,.09,0,5.58.56,7.18,3.53,7.53,5.92,0,.02.05.07.13.07h.05s.08-.04.09-.06c-.19-1.37-.89-2.52-1.48-3.14-1.75-1.86-1.21-5.44-1.18-5.59-.02-.03-.05-.06-.11-.07h0c-.11,0-.17.05-.17.07,0,.02-.19,1.21.04,2.63.05.34-.08.69-.36.9-.17.13-.37.19-.57.19-.13,0-.27-.03-.4-.09-1.05-.48-2.01-.72-2.63-.84-.27-.05-.51-.22-.65-.46-.14-.24-.16-.53-.07-.79.2-.54.24-1.02.23-1.32-.02-1.86-1.33-3.64-3.05-4.13-5.32-1.52-9.78-5.33-11.36-9.71-1.29-3.57-.71-7.31,1.69-10.83.18-.26.47-.41.78-.41.09,0,.17.01.26.04.39.11.67.46.69.87.16,4.06,4.01,6.19,7.72,6.19.09,0,.19,0,.28,0,0,0,.02,0,.03,0,.25,0,.49.1.67.28.18.18.28.43.28.69-.03,1.17.39,2.2.7,2.87.11.24.12.52.02.76-.1.25-.3.44-.55.53-.75.27-1.54.41-2.36.41-2.23,0-3.89-.99-4.07-1.11-.04-.02-.07-.03-.1-.03-.06,0-.11.02-.14.06,0,.03,0,.04.03.06.02.01,1.87,1.16,4.29,1.16.08,0,.16,0,.24,0,.91-.03,1.81-.24,2.68-.62.12-.05.25-.08.38-.08.22,0,.44.08.62.23.79.68,1.89,1.14,3.38,1.4,1.08.2,1.17.95,1.31,1.99.17,1.3.4,3.07,2.55,4.97.83.73,1.79,1.33,2.84,1.77,2.37,1,4.32,3.53,4.98,6.45.66,2.94-.06,5.77-2.04,7.98-1.67,1.87-3.93,2.89-6.35,2.89h0Z"/>
        <path class="cls-1" d="m24.97,26.85c.18,4.42,4.22,7.1,8.67,7.1.1,0,.2,0,.3,0-.04,1.46.51,2.7.79,3.3-.71.25-1.4.35-2.04.35-1.97,0-3.48-.91-3.57-.97-.18-.11-.39-.17-.6-.17-.35,0-.7.16-.91.46-.33.47-.2,1.1.3,1.42.12.07,2.13,1.31,4.8,1.31.09,0,.18,0,.27,0,.95-.03,1.98-.24,3.03-.7.85.73,2.06,1.3,3.83,1.62.35.06.39.07.54,1.18.18,1.36.44,3.42,2.87,5.56.93.82,1.99,1.47,3.1,1.93,3.88,1.63,6.76,8.29,2.6,12.93-1.61,1.8-3.67,2.58-5.65,2.58-3.21,0-6.22-2.05-6.77-5.12-1.15.42-2.22.61-3.19.61-5.02,0-7.62-4.94-6.9-8.11.88.29,1.88.48,3,.48.1,0,.21,0,.31,0,.28,0,.57-.03.86-.06.6-.07,1.02-.58.95-1.14-.07-.52-.55-.89-1.09-.89-.04,0-.08,0-.12,0-.23.03-.47.04-.72.04-3.61,0-8.43-2.96-5.97-9.38,2.03,3.08,5.31,5.34,9.77,6.72,1.25.39,2.24,1.76,2.25,3.12.01,1.54-1.17,2.78-3.33,3.5-.57.19-.86.77-.67,1.3.16.42.57.68,1.02.68.01,0,.02,0,.04,0,.11,0,.22-.02.33-.06,1.54-.51,2.59-1.21,3.3-1.93,1.58.16,6.05.76,6.69,5.12.07.51.54.88,1.07.88.01,0,.02,0,.04,0,.04,0,.08,0,.12,0,.6-.08,1.01-.6.93-1.15-.22-1.49-.98-2.82-1.74-3.63-1.43-1.52-.94-4.77-.94-4.79.09-.56-.32-1.07-.92-1.15-.05,0-.1,0-.15,0-.53,0-1,.36-1.08.87-.01.09-.21,1.38.04,2.92-1-.46-2-.75-2.86-.91.24-.66.29-1.25.29-1.65-.02-2.25-1.58-4.41-3.74-5.03-8.02-2.3-15.05-10.42-9.15-19.09m0-1.89c-.62,0-1.21.3-1.56.83-3.25,4.77-2.77,8.99-1.79,11.68.26.73.6,1.44.99,2.12-.32.21-.57.52-.71.89-1.54,4.02-.56,6.75.52,8.33.62.9,1.46,1.67,2.43,2.26-.12.19-.21.39-.26.62-.52,2.29.2,5.02,1.87,7.11,1.71,2.13,4.15,3.31,6.88,3.31.65,0,1.3-.07,1.97-.2,1.37,2.82,4.45,4.71,7.99,4.71,2.7,0,5.21-1.14,7.06-3.21,2.19-2.44,2.99-5.58,2.26-8.82-.72-3.21-2.9-6-5.54-7.11-.96-.4-1.83-.94-2.58-1.61-1.89-1.67-2.09-3.17-2.24-4.38-.14-1.05-.32-2.49-2.08-2.8-1.3-.23-2.29-.63-2.94-1.19-.19-.16-.4-.28-.62-.35-.01-.24-.07-.48-.18-.71-.18-.37-.64-1.36-.61-2.45.01-.52-.19-1.02-.55-1.39-.36-.35-.84-.55-1.34-.55-.02,0-.03,0-.05,0-.08,0-.17,0-.25,0-3.26,0-6.64-1.81-6.78-5.28-.03-.82-.59-1.52-1.37-1.74-.17-.05-.35-.07-.52-.07h0Z"/>
      </g>
      <g>
        <path class="cls-2" d="m52.46,34.48s-.09,0-.14,0c-.34-.05-.62-.27-.74-.59-.4-1.01-.62-2.03-.65-3.04-.04-1.3.19-2.57.7-3.78-.5-.93-.77-1.92-.8-2.95-.04-1.09.2-2.15.69-3.16l.14-.29c.02-.08.05-.16.09-.24.76-1.31,2-2.78,3.07-3.64.18-.14.35-.28.52-.41l.19-.15c2.41-1.91,3.86-3.06,3.63-6.61,0-.01-.03-.04-.09-.04-.09,0-.11.04-.12.05.23,3.54-1.29,4.75-3.59,6.57l-.12.1c-.19.15-.39.31-.59.47-.51.42-1.41,1.29-2.23,2.39-.18.24-.46.38-.76.38-.07,0-.15,0-.22-.03-.37-.09-.65-.39-.71-.76-.05-.3-.08-.6-.09-.89-.04-1.38.34-2.73,1.11-3.91-.51-1-.78-2.06-.82-3.16-.07-2.1.74-4.1,2.27-5.63,1.52-1.52,3.56-2.39,5.76-2.46.09,0,.19,0,.28,0,4.49,0,8.11,3.33,8.25,7.57.02.55-.03,1.12-.14,1.69l-.16.82s-.02.07-.03.11c-.91,2.79-2.64,3.92-4.32,5.01-1.93,1.26-3.93,2.56-5.13,6.19,0,0,.02.02.05.03.02,0,.03,0,.04,0,.07,0,.11-.03.11-.05,1.09-3.3,2.82-4.66,4.66-5.87.16-.11.34-.16.52-.16.29,0,.58.14.76.39.44.6,1.46,2.17,1.48,3.78,0,0,.03.03.09.04.08,0,.11-.04.12-.05-.02-1.62-1.06-3.2-1.51-3.8-.15-.2-.21-.46-.17-.71.04-.25.17-.47.38-.62,1.15-.84,2.32-1.9,3.05-4.03.09-.26.29-.47.55-.57.11-.04.23-.06.34-.06.16,0,.31.04.45.11,1.92,1.04,4.19,3.95,3.8,7.44,3.73,1.15,5.46,4.41,4.66,8.89-.07.37-.35.67-.71.75-.07.02-.14.03-.22.03-.3,0-.58-.14-.76-.38-1.33-1.8-4.46-2.27-6.09-2.27-.09,0-.17,0-.25,0h-.08c-2.94.12-5.64,1.39-7.6,3.59-.18.2-.44.32-.71.32-.04,0-.08,0-.12,0-.19-.02-.4-.04-.62-.04-1.24,0-2.75.4-4.04,1.08-1.09.57-1.99,1.31-2.68,2.19-.18.23-.46.36-.74.36Z"/>
        <path class="cls-1" d="m59.23,3.64c3.93,0,7.18,2.94,7.3,6.66.02.48-.03.98-.12,1.47l-.16.82c-.81,2.47-2.26,3.42-3.94,4.52-1.97,1.29-4.21,2.75-5.51,6.69-.17.52.14,1.07.69,1.23.1.03.2.04.3.04.01,0,.03,0,.04,0,.44-.01.84-.28.97-.7,1-3.05,2.58-4.25,4.28-5.38.37.51,1.28,1.89,1.3,3.23,0,.54.47.97,1.05.97,0,0,.01,0,.02,0,0,0,.01,0,.02,0,.57-.02,1.03-.46,1.02-1-.03-1.9-1.2-3.69-1.69-4.35,1.35-.98,2.61-2.22,3.39-4.48,1.91,1.03,3.96,4.06,3.16,7.3,4.11.84,5.52,4.08,4.81,8.02-1.54-2.08-4.93-2.66-6.85-2.66-.1,0-.19,0-.28,0-.03,0-.05,0-.08,0-3.23.12-6.15,1.5-8.28,3.91-.23-.03-.48-.05-.74-.05-1.37,0-3.02.42-4.48,1.19-1.22.64-2.23,1.47-2.99,2.45-.34-.87-.55-1.78-.58-2.72-.04-1.16.17-2.3.63-3.39l.17-.41-.21-.39c-.43-.8-.66-1.66-.69-2.54-.03-.94.17-1.85.59-2.71l.22-.45v-.02c.74-1.29,1.91-2.64,2.83-3.38.24-.2.48-.38.7-.56,2.46-1.95,4.25-3.37,3.98-7.41-.03-.52-.48-.92-1.04-.92-.03,0-.05,0-.08,0-.58.04-1.02.51-.98,1.05.2,3.05-.95,3.96-3.24,5.77-.23.18-.47.37-.72.57-.61.5-1.55,1.43-2.39,2.55-.04-.25-.07-.5-.08-.76-.04-1.18.29-2.35.96-3.36l.3-.46-.25-.48c-.45-.87-.69-1.8-.72-2.76-.12-3.8,3.07-6.99,7.12-7.12.08,0,.17,0,.25,0m0-1.89c-.1,0-.21,0-.31,0-5.09.16-9.1,4.23-8.95,9.07.03,1.07.27,2.1.69,3.08-.69,1.23-1.03,2.6-.98,3.99.01.33.05.67.11,1.02.1.59.48,1.09,1,1.36,0,.02-.02.05-.02.07l-.1.2c-.56,1.15-.82,2.36-.78,3.6.03,1.03.27,2.03.71,2.97-.45,1.21-.65,2.47-.61,3.76.04,1.12.28,2.24.72,3.35.25.63.82,1.08,1.49,1.18.09.01.18.02.27.02.58,0,1.13-.26,1.49-.72.61-.78,1.41-1.43,2.38-1.94,1.16-.61,2.5-.97,3.6-.97.18,0,.34,0,.49.03.08.01.16.02.25.02.54,0,1.05-.23,1.41-.63,1.79-2.01,4.25-3.17,6.94-3.27h.04s.03,0,.03,0c.07,0,.14,0,.22,0,1.95,0,4.41.65,5.33,1.89.36.49.93.76,1.52.76.14,0,.29-.02.43-.05.74-.17,1.3-.77,1.43-1.51.83-4.65-.92-8.23-4.61-9.71.04-3.31-1.97-6.34-4.33-7.61-.23-.12-.47-.2-.72-.22.05-.42.07-.83.05-1.25-.07-2.31-1.08-4.46-2.84-6.06-1.72-1.57-3.98-2.43-6.35-2.43h0Z"/>
      </g>
      <g>
        <path class="cls-2" d="m59,65.67c-4.02,0-7.26-2.98-7.38-6.78-.04-1.27.29-2.54.96-3.66-.43-.81-.66-1.68-.69-2.58-.01-.32.01-.64.07-1.03.05-.35.29-.64.62-.76.1-.04.21-.05.32-.05.23,0,.46.09.64.25.75.69,1.54,1.31,2.35,1.93.44.34.82.63,1.13.9,2.96,2.53,1.59,5.32,1.42,5.63,0,0,0,.02.02.03.02.01.04.02.07.02.05,0,.1-.03.11-.05.58-1.03,1.03-3.54-1.44-5.65-.3-.26-.73-.59-1.14-.9-.95-.73-2.25-1.73-3.2-2.79-.01-.01-.02-.02-.03-.03l-.3-.37c-1.15-1.41-1.79-3.09-1.85-4.87-.03-.89.11-1.8.4-2.71.11-.34.41-.59.77-.64.04,0,.09,0,.13,0,.31,0,.61.15.78.42.74,1.1,1.72,1.86,2.39,2.2.02.01.04.02.07.02.04,0,.07-.01.09-.02-.02-.03-.05-.07-.11-.11-3.49-2.47-3.6-5.3-3.08-7.24.76-2.81,2.76-4.23,3.89-4.82,1.27-.67,2.68-1.05,3.88-1.05.44,0,.81.05,1.1.16l.11.04.05-.07c2.64-3.3,6.03-3.91,7.82-3.98.12,0,.23,0,.33,0,2.14,0,4.16.64,5.55,1.75.01.01.11.1.11.1.05.04.12.11.19.17l.05.05c1.79,1.64,2.83,3.85,2.9,6.2.06,1.76-.43,3.48-1.4,5l-.27.42c-.03.08-.07.16-.12.23-.75,1.02-1.81,2.07-2.31,2.53.01.04.05.05.09.05.03,0,.07,0,.1-.03.04-.04.98-.88,1.85-1.93.18-.22.45-.34.73-.34.05,0,.11,0,.16.01.33.06.61.29.73.6,1.39,3.76.75,8.25-1.67,11.73-1.76,2.53-4.13,3.98-6.51,3.98h0c-1.04,0-2.05-.28-2.99-.83-1.15-.67-1.89-1.81-2.03-3.14-.25-2.45,1.47-5.61,1.67-5.96,0,0,.01-.02.02-.03,2.14-3.54,2.99-5.3,2.2-7.21-.38-.91-1.07-1.61-1.99-2.02-.42-.19-.65-.66-.53-1.11.54-2.05.07-4,.04-4.08,0,0-.04-.03-.1-.03-.01,0-.02,0-.04,0-.05.01-.07.04-.07.04.06.22.48,2.12-.05,4.1-.11.41-.49.7-.91.7-.01,0-.02,0-.04,0-.06,0-.13,0-.19,0-1.38,0-2.79.54-3.85,1.49.01.04.05.05.09.05.02,0,.06,0,.1-.03,1.03-.91,2.36-1.44,3.66-1.44.32,0,.63.03.93.09,1.28.27,2.25,1.06,2.74,2.23.68,1.63.1,3.2-1.21,5.53-1.11,1.97-3.72,2.85-5.82,2.85-.42,0-1.01-.04-1.5-.22-.02,0-.04-.01-.06-.01-.06,0-.1.03-.11.05,0,0,.01.01.04.02.42.16,1.01.25,1.67.25.08,0,.16,0,.25,0,.8-.03,1.63-.17,2.4-.43.1-.03.2-.05.3-.05.25,0,.5.1.69.29.25.26.33.65.2.99-.59,1.52-.84,2.88-.73,3.93.13,1.3.88,2.45,2.05,3.16.63.38,1.34.62,2.12.71.33.04.62.24.76.54.14.3.11.65-.08.93-.79,1.16-1.96,2.05-3.29,2.51h-.04s-.01.04-.01.04c-1.18,2.47-3.68,4.06-6.53,4.15-.08,0-.17,0-.25,0Z"/>
        <path class="cls-1" d="m69.33,28.01c1.93,0,3.74.56,4.96,1.54l.08.07c.08.06.14.13.22.2,1.61,1.48,2.54,3.44,2.6,5.55.05,1.57-.38,3.11-1.25,4.46l-.38.59.02.02c-.71.97-1.74,1.98-2.18,2.39-.42.38-.43,1-.03,1.39.2.2.48.3.75.3.01,0,.02,0,.04,0,.25,0,.5-.1.69-.28.16-.14,1.08-.99,1.94-2.03,2.44,6.59-2.25,14.44-7.29,14.44-.84,0-1.69-.22-2.52-.7-.9-.52-1.46-1.42-1.56-2.42-.23-2.26,1.55-5.39,1.55-5.4,2.06-3.41,3.27-5.63,2.26-8.06-.48-1.14-1.35-2.02-2.48-2.52.61-2.3.07-4.45.05-4.55-.12-.45-.55-.75-1.02-.75-.08,0-.16,0-.25.03-.56.13-.91.67-.77,1.19,0,.02.45,1.79-.05,3.62-.07,0-.15,0-.22,0-1.59,0-3.23.61-4.48,1.73-.42.38-.44,1-.04,1.4.21.2.48.31.76.31.26,0,.52-.09.73-.27.87-.77,1.98-1.2,3.03-1.2.25,0,.5.02.74.07.68.14,1.59.55,2.06,1.67.49,1.17.14,2.38-1.16,4.71-.98,1.73-3.39,2.36-4.99,2.36-.48,0-.89-.06-1.16-.16-.13-.05-.26-.07-.39-.07-.42,0-.81.23-.98.62-.22.51.04,1.08.58,1.28.52.2,1.22.31,2,.31.09,0,.18,0,.28,0,.84-.03,1.77-.18,2.67-.47-.49,1.27-.94,2.91-.79,4.37.17,1.59,1.08,3,2.5,3.87.76.46,1.61.74,2.51.84-.66.97-1.65,1.74-2.82,2.14l-.42.14-.18.38c-1.03,2.15-3.21,3.53-5.7,3.61-.07,0-.15,0-.22,0-3.46,0-6.33-2.59-6.43-5.86-.03-1.09.25-2.18.83-3.14l.27-.45-.25-.47c-.36-.68-.56-1.42-.58-2.18,0-.29.02-.58.06-.86.81.75,1.69,1.42,2.42,1.99.42.33.81.62,1.1.87,2.4,2.05,1.33,4.22,1.2,4.46-.27.48-.07,1.07.44,1.32.16.08.32.11.49.11.01,0,.02,0,.03,0,.36-.01.71-.2.9-.53.71-1.27,1.28-4.33-1.65-6.83-.31-.27-.72-.58-1.18-.94-.96-.74-2.2-1.69-3.08-2.67l-.3-.37c-1.02-1.25-1.59-2.74-1.64-4.3-.03-.82.11-1.62.36-2.39.84,1.24,1.94,2.1,2.74,2.51.16.08.33.12.5.12.01,0,.03,0,.04,0,.36-.01.7-.19.88-.51.28-.47.07-1.01-.4-1.34-.96-.68-3.65-2.72-2.71-6.23.6-2.23,2.12-3.55,3.42-4.23,1.31-.69,2.59-.94,3.44-.94.34,0,.61.04.79.1l.74.26.47-.59c2.4-3.01,5.49-3.56,7.11-3.63.1,0,.2,0,.3,0m0-1.89h0c-.12,0-.24,0-.35,0-1.89.07-5.38.69-8.19,3.93-.27-.05-.56-.07-.87-.07-1.35,0-2.93.42-4.32,1.16-1.26.66-3.52,2.25-4.37,5.41-.27,1-.45,2.51.12,4.16-.54.2-.96.63-1.15,1.19-.33,1.02-.48,2.04-.45,3.04.06,1.95.75,3.79,1.99,5.34-.38.3-.63.73-.7,1.22-.06.44-.09.82-.07,1.19.03.87.22,1.72.57,2.52-.59,1.16-.88,2.44-.84,3.72.14,4.32,3.79,7.7,8.32,7.7.09,0,.19,0,.28,0,3.08-.1,5.79-1.76,7.18-4.36,1.39-.55,2.6-1.52,3.44-2.75.21-.3.32-.65.33-1.01,2.43-.26,4.79-1.81,6.55-4.35,2.59-3.73,3.27-8.55,1.78-12.6-.16-.43-.47-.78-.85-1,.95-1.6,1.43-3.41,1.37-5.25-.08-2.61-1.22-5.05-3.2-6.87l-.04-.04c-.06-.06-.14-.13-.23-.21l-.06-.05s-.05-.04-.07-.06c-1.55-1.24-3.79-1.96-6.14-1.96h0Z"/>
      </g>
    </g>
  </g>
  <g>
    <g>
      <path class="cls-2" d="m117.59,41.86h-7l-1.35,4.13h-4.25l6.85-19.33h4.48l6.83,19.33h-4.22l-1.35-4.13Zm-1-3.13l-1.87-5.74c-.21-.62-.44-1.46-.59-2.2h-.09c-.12.73-.38,1.58-.59,2.23l-1.85,5.71h4.98Z"/>
      <path class="cls-2" d="m126.94,30.23c-1.44,0-2.58-1.03-2.58-2.49s1.14-2.49,2.58-2.49,2.61,1.05,2.61,2.49-1.17,2.49-2.61,2.49Zm-2.02,1.93l4.01-.12v13.94h-4.01v-13.83Z"/>
      <path class="cls-3" d="m149.08,45.99h-3.95l-6.24-9.32c-.76-1.17-1.76-2.84-2.23-3.6l-.18.09c.12.44.15,1.93.15,3.49l.03,9.35h-4.01v-19.33h3.69l6.53,9.78c1,1.49,1.87,3.08,2.2,3.66l.18-.09c-.09-.53-.18-1.99-.18-3.6l-.03-9.75h4.04v19.33Z"/>
      <path class="cls-3" d="m166.34,32.17l-5.24,13.83h-4.48l-5.3-13.83h4.31l2.87,8.2c.23.73.32,1.08.44,1.82h.09c.15-.79.2-1.17.44-1.82l2.87-8.2h4.01Z"/>
      <path class="cls-3" d="m178.56,41.54l1.9,2.2c-.94,1.23-2.96,2.43-5.95,2.43-4.66,0-7.44-2.93-7.44-7.09s2.78-7.09,7.06-7.09c4.04,0,6.36,2.75,6.36,6.53,0,.88-.12,1.46-.12,1.46h-9.32c.35,1.85,1.64,3.13,3.93,3.13,1.96,0,2.99-.94,3.57-1.58Zm-7.5-3.63h5.77c-.03-1.64-1.03-2.87-2.7-2.87-1.58,0-2.78,1.03-3.08,2.87Z"/>
      <path class="cls-3" d="m190.77,36.5c0-1.11-.82-1.82-2.23-1.82-1.32,0-2.05.62-2.05,1.44,0,2.78,8.09.59,8.11,5.92.03,2.49-2.26,4.13-6.03,4.13-4.19,0-6.09-1.76-6.44-2.05l1.87-2.43c.29.26,2.34,1.67,4.42,1.67,1.41,0,2.08-.41,2.08-1.08,0-2.23-7.73-.88-7.73-5.92,0-2.69,2.34-4.36,5.92-4.36,3.34,0,5.68,1.61,5.68,3.87,0,.56-.12.94-.12.94l-3.54.21c.03-.12.06-.29.06-.5Z"/>
      <path class="cls-3" d="m207.74,45.17s-1.46,1-4.13,1c-3.63,0-5.54-1.96-5.54-5.89v-5.07h-2.11v-3.05h2.28v-3.9l3.87-.15v4.04h4.86v3.05h-4.86v4.89c0,1.85.7,2.67,2.26,2.67,1.41,0,2.23-.73,2.23-.73l1.14,3.13Z"/>
    </g>
    <path class="cls-3" d="m146.48,50.05l-2.49,2.57-2.14-2.57h-9.12l8.54,10.27c.61.73,1.49,1.17,2.41,1.21.93.04,1.82-.34,2.48-1.01l10.13-10.47h-9.81Z"/>
    <path class="cls-3" d="m177.08,25.62l2.49-2.57,2.14,2.57h9.12l-8.54-10.27c-.61-.73-1.49-1.17-2.41-1.21-.93-.04-1.82.34-2.48,1.01l-10.13,10.47h9.81Z"/>
    <path class="cls-3" d="m102.82,50.05l-11.07,10.15c-1.26,1.15-1.55,3.17-.68,4.7.62,1.08,1.7,1.73,2.89,1.73.81,0,1.6-.31,2.21-.87l17.14-15.71h-10.49Z"/>
    <path class="cls-3" d="m227.27,3.24c-.69-1.08-1.88-1.69-3.11-1.57l-10.59,1.02c-1.84.18-3.2,1.88-3.08,3.88.06,1.03.53,1.98,1.27,2.62.68.58,1.54.86,2.42.78l.53-.05-16.47,15.69s0,.01,0,.02h10.24l9.92-9.45-.19.79c-.44,1.85.49,3.72,2.16,4.35.36.14.75.21,1.13.21,1.55,0,2.91-1.13,3.29-2.75l2.96-12.55c.24-1.03.06-2.11-.49-2.98Z"/>
  </g>
</svg>