<?xml version="1.0" encoding="utf-8"?>
<!-- Generator: Adobe Illustrator 27.8.0, SVG Export Plug-In . SVG Version: 6.00 Build 0)  -->
<svg version="1.1" id="Camada_1" xmlns="http://www.w3.org/2000/svg" xmlns:xlink="http://www.w3.org/1999/xlink" x="0px" y="0px"
	 viewBox="0 0 146.04 149.79" style="enable-background:new 0 0 146.04 149.79;" xml:space="preserve">
<style type="text/css">
	.st0{fill:#840BD4;}
	.st1{fill:#ED195C;}
	.st2{fill:#FFFFFF;}
	.st3{fill:#F2F2F2;}
	.st4{opacity:0.2;}
	.st5{fill:#606060;}
	.st6{fill:#FF6B01;}
	.st7{opacity:0.5;fill:#D1D1D1;stroke:#D1D1D1;stroke-width:0.5;stroke-miterlimit:10;}
	.st8{fill:none;stroke:#EDEDED;stroke-miterlimit:10;}
	.st9{fill:#515151;}
	.st10{opacity:0.1;}
</style>
<g>
	<g>
		<path class="st2" d="M102.72,51.07c-0.16-0.44-0.55-0.77-1.02-0.85c-0.06-0.01-0.12-0.02-0.18-0.02l0.22-0.35
			c1.01-1.58,1.52-3.38,1.46-5.21c-0.06-1.96-0.76-3.82-1.99-5.36c0.49-0.14,0.86-0.54,0.95-1.04c0.41-2.32,0.16-4.41-0.75-6.05
			c-0.82-1.48-2.15-2.57-3.89-3.17c0.21-3.25-1.72-6.26-4.02-7.5c-0.2-0.11-0.41-0.16-0.63-0.16c-0.16,0-0.32,0.03-0.48,0.09
			c-0.01,0-0.02,0.01-0.02,0.01l0.02-0.11c0.12-0.59,0.17-1.19,0.15-1.77c-0.07-2.16-1.01-4.17-2.65-5.66
			c-1.62-1.47-3.74-2.28-5.97-2.28c-0.1,0-0.19,0-0.29,0c-3.56,0.11-6.57,2.26-7.8,5.23c-0.86-3.14-3.47-5.2-6.87-5.2h0
			c-0.09,0-0.18,0-0.26,0c-2.69,0.09-4.67,1.18-5.89,3.26c-0.05,0-0.11,0-0.17,0c-2.62,0-5.47,2.11-6.23,4.61
			c-0.17,0.57-0.28,1.13-0.32,1.71c0,0-0.01,0-0.01-0.01c-0.17-0.08-0.35-0.11-0.54-0.11c-0.26,0-0.52,0.08-0.75,0.23
			c-2.18,1.49-3.67,3.71-4.2,6.26c-0.42,2.04-0.19,4.08,0.64,5.73c-0.31,0.65-0.49,1.32-0.54,2.01c-0.17-0.21-0.4-0.37-0.67-0.45
			c-0.12-0.03-0.24-0.05-0.36-0.05c-0.43,0-0.84,0.21-1.09,0.58c-2.46,3.62-3.06,7.48-1.73,11.17c0.32,0.89,0.75,1.75,1.29,2.58
			c-0.46,0.08-0.84,0.39-1.01,0.83c-1.45,3.79-0.55,6.34,0.46,7.8c0.71,1.03,1.73,1.87,2.91,2.46c0,0-0.01,0-0.01,0.01
			c-0.33,0.18-0.56,0.5-0.64,0.86c-0.48,2.13,0.19,4.67,1.76,6.63c1.6,2,3.88,3.1,6.43,3.1c0.75,0,1.52-0.09,2.31-0.28
			c0.5,1.22,1.36,2.3,2.49,3.13c1.46,1.07,3.3,1.66,5.17,1.66c2.54,0,4.9-1.07,6.64-3.02c0.67-0.74,1.19-1.56,1.58-2.42
			c0.36,1.28,1.09,2.44,2.12,3.38c1.45,1.32,3.36,2.05,5.37,2.05c0.09,0,0.17,0,0.26,0c2.94-0.09,5.53-1.72,6.8-4.25
			c1.37-0.5,2.56-1.42,3.37-2.61c0.25-0.36,0.3-0.82,0.14-1.22c2.47-0.03,4.93-1.54,6.74-4.14
			C103.5,59.57,104.15,54.94,102.72,51.07z"/>
	</g>
	<g>
		<g>
			<g>
				<path class="st6" d="M73.59,58.52c-0.17,0-0.33-0.04-0.48-0.13c-0.49-0.29-0.98-0.54-1.46-0.79c-0.99-0.51-2.03-1.04-2.85-1.77
					c-2.12-1.87-2.35-3.63-2.51-4.91c-0.15-1.18-0.3-1.91-1.51-2.13c-3.71-0.67-4.38-2.75-4.72-4.65c-0.38-2.13,0.4-4.46,1.08-5.43
					c0.02-0.03,0.03-0.05,0.02-0.07c0-0.01-0.02-0.02-0.03-0.03c-0.04-0.02-0.07-0.03-0.1-0.03c-0.06,0-0.11,0.02-0.14,0.06
					c-0.01,0.01-0.79,1.06-1.13,2.73c-0.08,0.43-0.45,0.74-0.88,0.76c-0.13,0.01-0.26,0.01-0.39,0.01c0,0,0,0,0,0
					c-2.87,0-5.52-1.5-6.77-3.82c-0.87-1.63-0.89-3.42-0.07-4.99c-1.78-3.36-0.92-8.75,3.35-11.67c0.16-0.11,0.35-0.17,0.53-0.17
					c0.13,0,0.26,0.03,0.38,0.08c0.28,0.12,0.48,0.38,0.54,0.67c-0.06-0.88,0.04-1.75,0.3-2.61c0.63-2.1,3.14-4.34,5.87-4.34
					c0.13,0,0.25,0.01,0.38,0.02c1.15-2.09,3.06-3.19,5.69-3.27c0.08,0,0.17,0,0.25,0c3.87,0,6.67,2.83,6.8,6.88
					c0.05,1.7-0.54,3.38-1.66,4.71l-0.02,0.02l0.02,0.02c0.91,1.17,1.42,2.56,1.47,4.02c0.06,1.74-0.56,3.44-1.74,4.79l-0.02,0.03
					l0.02,0.02c1,1.22,1.56,2.67,1.61,4.2c0.03,1.02-0.17,2.06-0.6,3.02c-0.01,0.03-0.03,0.06-0.05,0.09
					c-0.74,1.26-2.14,2.01-3.06,2.01c-0.04,0-0.07,0-0.11,0c-1.7-0.09-2.96-0.63-3.85-1.67c-1.25-1.46-1.18-3.65-1.13-4.96
					c0-0.12,0.01-0.24,0.01-0.34c0.02-1.06,0.13-2,0.26-3.2l0.06-0.59c0.26-2.47,0.56-5.27,0.3-6.44c-0.73-3.23-2.58-3.9-4-3.9
					c-0.05,0-0.09,0-0.14,0c-0.07,0-0.11,0.03-0.12,0.05c-0.01,0.01-0.02,0.02-0.02,0.03c0,0.02,0.05,0.07,0.14,0.07
					c0.07,0,0.14,0,0.22,0c1.27,0,2.94,0.65,3.65,3.77c0.24,1.08,0.02,3.45-0.3,6.43c-0.15,1.45-0.24,2.48-0.32,3.77
					c-0.01,0.13-0.02,0.27-0.03,0.42c-0.11,1.28-0.27,3.21,1.17,4.93c0.96,1.15,2.36,1.76,4.06,1.78c0,0,0,0,0,0
					c0.38,0,0.77-0.06,1.07-0.16c0.1-0.03,0.2-0.05,0.3-0.05c0.19,0,0.38,0.06,0.55,0.17c0.24,0.17,0.39,0.45,0.4,0.75
					c0.02,0.86-0.06,1.71-0.22,2.53l0,0.01l0.01,0.01c1.4,1.81,2.18,3.96,2.25,6.21c0.06,1.78-0.58,4.69-1.43,6.49
					c-0.11,0.24-0.32,0.42-0.58,0.5C73.78,58.51,73.69,58.52,73.59,58.52z M56.98,24.54c0.41,1.3,1.08,2.74,2.2,4.08
					c0.45,0.54,0.93,1.02,1.43,1.44c0.04,0.03,0.09,0.04,0.11,0.04c0.03,0,0.09-0.01,0.13-0.05c0.01-0.01,0.02-0.02,0.02-0.03
					c0-0.01-0.01-0.02-0.02-0.03c-0.49-0.41-0.96-0.89-1.41-1.42C58.28,27.18,57.46,25.84,56.98,24.54z"/>
			</g>
			<g>
				<path class="st2" d="M68.95,13c3.34,0,5.74,2.42,5.85,5.96c0.05,1.47-0.46,2.91-1.44,4.07l-0.51,0.61l0.49,0.63
					c0.79,1.01,1.23,2.21,1.27,3.47c0.05,1.5-0.49,2.97-1.51,4.14l-0.55,0.63l0.53,0.64c0.87,1.05,1.35,2.3,1.39,3.62
					c0.03,0.9-0.15,1.78-0.52,2.6c-0.6,1.02-1.7,1.54-2.25,1.54c-0.02,0-0.03,0-0.05,0c-1.45-0.08-2.49-0.52-3.19-1.34
					c-1.12-1.3-0.92-3.48-0.9-4.66c0.03-1.18,0.16-2.24,0.32-3.71c0.28-2.67,0.58-5.43,0.28-6.75c-0.91-3.99-3.4-4.64-4.92-4.64
					c-0.06,0-0.11,0-0.17,0c-0.6,0.02-1.07,0.49-1.05,1.05c0.02,0.55,0.5,0.99,1.08,0.99c0.01,0,0.02,0,0.04,0c0.05,0,0.11,0,0.18,0
					c0.7,0,2.08,0.21,2.72,3.03c0.23,1.01-0.07,3.84-0.32,6.12c-0.16,1.47-0.24,2.5-0.33,3.81c-0.09,1.3-0.52,3.79,1.35,6.02
					c1.08,1.3,2.69,2.1,4.77,2.12c0.01,0,0.03,0,0.04,0c0.48,0,0.96-0.08,1.34-0.21c0.02,0.77-0.05,1.55-0.2,2.32L72.6,45.5
					l0.28,0.36c1.28,1.65,1.99,3.61,2.05,5.66c0.05,1.66-0.58,4.43-1.34,6.05c-0.51-0.3-1.02-0.56-1.51-0.82
					c-0.99-0.51-1.92-0.99-2.65-1.63c-1.85-1.63-2.05-3.13-2.2-4.32c-0.14-1.09-0.33-2.58-2.28-2.93c-3.07-0.55-3.63-2.04-3.96-3.89
					c-0.33-1.84,0.38-3.94,0.92-4.72c0.33-0.47,0.24-1.09-0.25-1.42c-0.19-0.13-0.41-0.19-0.63-0.19c-0.34,0-0.67,0.15-0.89,0.43
					c-0.06,0.07-0.93,1.25-1.3,3.12c-0.11,0.01-0.23,0.01-0.34,0.01c-4.58,0-8.09-4.32-5.74-7.87c-1.88-2.86-1.35-8.06,2.78-10.89
					c0.25,1.79,0.94,4.42,2.9,6.77c0.49,0.58,1.01,1.11,1.55,1.56c0.21,0.17,0.46,0.26,0.72,0.26c0.01,0,0.02,0,0.04,0
					c0.29-0.01,0.57-0.13,0.78-0.34c0.4-0.42,0.36-1.07-0.09-1.44c-0.45-0.37-0.88-0.81-1.29-1.3c-2.74-3.28-3.14-5.87-2.48-8.03
					c0.55-1.83,2.79-3.67,4.96-3.67c0.31,0,0.62,0.04,0.92,0.12c1-2.31,2.79-3.3,5.18-3.38C68.81,13,68.88,13,68.95,13 M68.95,11.1
					L68.95,11.1c-0.09,0-0.19,0-0.28,0c-2.74,0.09-4.85,1.21-6.18,3.26c-2.85,0.07-5.8,2.29-6.62,5.01
					c-0.12,0.39-0.21,0.79-0.27,1.19c-0.02,0-0.03,0-0.05,0c-0.38,0-0.75,0.11-1.07,0.33c-2.31,1.58-3.88,3.92-4.43,6.61
					c-0.42,2.06-0.22,4.13,0.57,5.85c-0.75,1.74-0.66,3.67,0.29,5.43c1.41,2.63,4.39,4.32,7.6,4.32c0.14,0,0.29,0,0.43-0.01
					c0.03,0,0.06,0,0.08-0.01c0.01,0.41,0.04,0.82,0.12,1.23c0.41,2.26,1.37,4.68,5.48,5.42c0.48,0.09,0.58,0.1,0.74,1.31
					c0.18,1.36,0.44,3.4,2.83,5.5c0.91,0.8,1.99,1.36,3.04,1.9c0.47,0.24,0.95,0.49,1.41,0.76c0.29,0.17,0.63,0.26,0.96,0.26
					c0.19,0,0.38-0.03,0.56-0.08c0.51-0.16,0.93-0.52,1.15-1c0.91-1.94,1.58-4.98,1.52-6.92c-0.07-2.32-0.83-4.53-2.2-6.43
					c0.13-0.76,0.18-1.54,0.17-2.33c-0.01-0.38-0.13-0.74-0.34-1.04c0.43-0.36,0.82-0.81,1.13-1.34c0.03-0.06,0.07-0.12,0.09-0.18
					c0.48-1.08,0.72-2.27,0.68-3.43c-0.05-1.5-0.52-2.93-1.37-4.17c1.04-1.42,1.57-3.13,1.51-4.86c-0.05-1.42-0.48-2.79-1.25-3.99
					c0.99-1.41,1.5-3.08,1.45-4.79c-0.07-2.19-0.87-4.17-2.25-5.58C73.03,11.89,71.09,11.1,68.95,11.1L68.95,11.1z"/>
			</g>
		</g>
		<g>
			<g>
				<path class="st6" d="M67.99,75c-3.45,0-6.41-1.99-7.43-4.86c-0.87,0.23-1.72,0.35-2.54,0.35c-2.43,0-4.61-1.05-6.14-2.95
					c-1.48-1.85-2.14-4.32-1.69-6.31c0.06-0.26,0.22-0.48,0.46-0.62c0.14-0.08,0.3-0.12,0.47-0.12c0.1,0,0.2,0.02,0.3,0.05
					c0.87,0.29,1.78,0.44,2.71,0.44c0.09,0,0.19,0,0.28,0c0.26-0.01,0.52-0.03,0.79-0.06c0.07-0.01,0.1-0.04,0.11-0.05
					c0.01-0.04-0.05-0.09-0.14-0.09c-0.28,0.03-0.56,0.05-0.84,0.05c-2.57,0-5.1-1.26-6.44-3.21c-0.96-1.39-1.81-3.82-0.42-7.45
					c0.13-0.33,0.43-0.56,0.78-0.6c0.03,0,0.07-0.01,0.1-0.01c0.32,0,0.61,0.16,0.79,0.43c1.91,2.89,5.02,5.03,9.26,6.34
					c1.65,0.51,2.9,2.24,2.91,4.01c0.01,1.15-0.49,3.24-3.98,4.41c-0.06,0.02-0.07,0.05-0.08,0.06c0.01,0.05,0.07,0.08,0.13,0.08
					c0.03,0,0.04,0,0.06-0.01c1.25-0.42,2.23-0.99,2.93-1.7c0.18-0.18,0.42-0.28,0.67-0.28c0.03,0,0.06,0,0.09,0
					c5.58,0.56,7.18,3.53,7.53,5.92c0,0.02,0.05,0.07,0.13,0.07l0.05,0c0.05-0.01,0.08-0.04,0.09-0.05
					c-0.19-1.37-0.89-2.52-1.48-3.14c-1.75-1.86-1.21-5.44-1.18-5.59c-0.02-0.03-0.05-0.06-0.11-0.07c0,0,0,0,0,0
					c-0.11,0-0.17,0.05-0.17,0.07c0,0.02-0.19,1.21,0.04,2.63c0.05,0.34-0.08,0.69-0.36,0.9c-0.17,0.13-0.37,0.19-0.57,0.19
					c-0.13,0-0.27-0.03-0.4-0.09c-1.05-0.48-2.01-0.72-2.63-0.84c-0.27-0.05-0.51-0.22-0.65-0.46c-0.14-0.24-0.16-0.53-0.07-0.79
					c0.2-0.54,0.24-1.02,0.23-1.32c-0.02-1.86-1.33-3.64-3.05-4.13c-5.32-1.52-9.78-5.33-11.36-9.71
					c-1.29-3.57-0.71-7.31,1.69-10.83c0.18-0.26,0.47-0.41,0.78-0.41c0.09,0,0.17,0.01,0.26,0.04c0.39,0.11,0.67,0.46,0.69,0.87
					c0.16,4.06,4.01,6.19,7.72,6.19c0.09,0,0.19,0,0.28,0c0.01,0,0.02,0,0.03,0c0.25,0,0.49,0.1,0.67,0.28
					c0.18,0.18,0.28,0.43,0.28,0.69c-0.03,1.17,0.39,2.2,0.7,2.87c0.11,0.24,0.12,0.52,0.02,0.76c-0.1,0.25-0.3,0.44-0.55,0.53
					c-0.75,0.27-1.54,0.41-2.36,0.41c-2.23,0-3.89-0.99-4.07-1.11c-0.04-0.02-0.07-0.03-0.1-0.03c-0.06,0-0.11,0.02-0.14,0.06
					c-0.01,0.03,0,0.04,0.03,0.06c0.02,0.01,1.87,1.16,4.29,1.16c0.08,0,0.16,0,0.24,0c0.91-0.03,1.81-0.24,2.68-0.62
					c0.12-0.05,0.25-0.08,0.38-0.08c0.22,0,0.44,0.08,0.62,0.23c0.79,0.68,1.89,1.14,3.38,1.4c1.08,0.2,1.17,0.95,1.31,1.99
					c0.17,1.3,0.4,3.07,2.55,4.97c0.83,0.73,1.79,1.33,2.84,1.77c2.37,1,4.32,3.53,4.98,6.45c0.66,2.94-0.06,5.77-2.04,7.98
					C72.67,73.98,70.42,75,67.99,75L67.99,75z"/>
			</g>
			<g>
				<path class="st2" d="M49.66,36.17c0.18,4.42,4.22,7.1,8.67,7.1c0.1,0,0.2,0,0.3,0c-0.04,1.46,0.51,2.7,0.79,3.3
					c-0.71,0.25-1.4,0.35-2.04,0.35c-1.97,0-3.48-0.91-3.57-0.97c-0.18-0.11-0.39-0.17-0.6-0.17c-0.35,0-0.7,0.16-0.91,0.46
					c-0.33,0.47-0.2,1.1,0.3,1.42c0.12,0.07,2.13,1.31,4.8,1.31c0.09,0,0.18,0,0.27,0c0.95-0.03,1.98-0.24,3.03-0.7
					c0.85,0.73,2.06,1.3,3.83,1.62c0.35,0.06,0.39,0.07,0.54,1.18c0.18,1.36,0.44,3.42,2.87,5.56c0.93,0.82,1.99,1.47,3.1,1.93
					c3.88,1.63,6.76,8.29,2.6,12.93c-1.61,1.8-3.67,2.58-5.65,2.58c-3.21,0-6.22-2.05-6.77-5.12c-1.15,0.42-2.22,0.61-3.19,0.61
					c-5.02,0-7.62-4.94-6.9-8.11c0.88,0.29,1.88,0.48,3,0.48c0.1,0,0.21,0,0.31-0.01c0.28-0.01,0.57-0.03,0.86-0.06
					c0.6-0.07,1.02-0.58,0.95-1.14c-0.07-0.52-0.55-0.89-1.09-0.89c-0.04,0-0.08,0-0.12,0.01c-0.23,0.03-0.47,0.04-0.72,0.04
					c-3.61,0-8.43-2.96-5.97-9.38c2.03,3.08,5.31,5.34,9.77,6.72c1.25,0.39,2.24,1.76,2.25,3.12c0.01,1.54-1.17,2.78-3.33,3.5
					c-0.57,0.19-0.86,0.77-0.67,1.3c0.16,0.42,0.57,0.68,1.02,0.68c0.01,0,0.02,0,0.04,0c0.11,0,0.22-0.02,0.33-0.06
					c1.54-0.51,2.59-1.21,3.3-1.93c1.58,0.16,6.05,0.76,6.69,5.12c0.07,0.51,0.54,0.88,1.07,0.88c0.01,0,0.02,0,0.04,0
					c0.04,0,0.08-0.01,0.12-0.01c0.6-0.08,1.01-0.6,0.93-1.15c-0.22-1.49-0.98-2.82-1.74-3.63c-1.43-1.52-0.94-4.77-0.94-4.79
					c0.09-0.56-0.32-1.07-0.92-1.15c-0.05-0.01-0.1-0.01-0.15-0.01c-0.53,0-1,0.36-1.08,0.87c-0.01,0.09-0.21,1.38,0.04,2.92
					c-1-0.46-2-0.75-2.86-0.91c0.24-0.66,0.29-1.25,0.29-1.65c-0.02-2.25-1.58-4.41-3.74-5.03C50.79,52.97,43.76,44.84,49.66,36.17
					 M49.66,34.28c-0.62,0-1.21,0.3-1.56,0.83c-3.25,4.77-2.77,8.99-1.79,11.68c0.26,0.73,0.6,1.44,0.99,2.12
					c-0.32,0.21-0.57,0.52-0.71,0.89c-1.54,4.02-0.56,6.75,0.52,8.33c0.62,0.9,1.46,1.67,2.43,2.26c-0.12,0.19-0.21,0.39-0.26,0.62
					c-0.52,2.29,0.2,5.02,1.87,7.11c1.71,2.13,4.15,3.31,6.88,3.31c0.65,0,1.3-0.07,1.97-0.2c1.37,2.82,4.45,4.71,7.99,4.71
					c2.7,0,5.21-1.14,7.06-3.21c2.19-2.44,2.99-5.58,2.26-8.82c-0.72-3.21-2.9-6-5.54-7.11c-0.96-0.4-1.83-0.94-2.58-1.61
					c-1.89-1.67-2.09-3.17-2.24-4.38c-0.14-1.05-0.32-2.49-2.08-2.8c-1.3-0.23-2.29-0.63-2.94-1.19c-0.19-0.16-0.4-0.28-0.62-0.35
					c-0.01-0.24-0.07-0.48-0.18-0.71c-0.18-0.37-0.64-1.36-0.61-2.45c0.01-0.52-0.19-1.02-0.55-1.39c-0.36-0.35-0.84-0.55-1.34-0.55
					c-0.02,0-0.03,0-0.05,0c-0.08,0-0.17,0-0.25,0c-3.26,0-6.64-1.81-6.78-5.28c-0.03-0.82-0.59-1.52-1.37-1.74
					C50.01,34.31,49.83,34.28,49.66,34.28L49.66,34.28z"/>
			</g>
		</g>
		<g>
			<g>
				<path class="st6" d="M77.14,43.8c-0.04,0-0.09,0-0.14-0.01c-0.34-0.05-0.62-0.27-0.74-0.59c-0.4-1.01-0.62-2.03-0.65-3.04
					c-0.04-1.3,0.19-2.57,0.7-3.78c-0.5-0.93-0.77-1.92-0.8-2.95c-0.04-1.09,0.2-2.15,0.69-3.16l0.14-0.29
					c0.02-0.08,0.05-0.16,0.09-0.24c0.76-1.31,2-2.78,3.07-3.64c0.18-0.14,0.35-0.28,0.52-0.41l0.19-0.15
					c2.41-1.91,3.86-3.06,3.63-6.61c0-0.01-0.03-0.04-0.09-0.04c-0.09,0-0.11,0.04-0.12,0.05c0.23,3.54-1.29,4.75-3.59,6.57
					l-0.12,0.1c-0.19,0.15-0.39,0.31-0.59,0.47c-0.51,0.42-1.41,1.29-2.23,2.39c-0.18,0.24-0.46,0.38-0.76,0.38
					c-0.07,0-0.15-0.01-0.22-0.03c-0.37-0.09-0.65-0.39-0.71-0.76c-0.05-0.3-0.08-0.6-0.09-0.89c-0.04-1.38,0.34-2.73,1.11-3.91
					c-0.51-1-0.78-2.06-0.82-3.16c-0.07-2.1,0.74-4.1,2.27-5.63c1.52-1.52,3.56-2.39,5.76-2.46c0.09,0,0.19,0,0.28,0
					c4.49,0,8.11,3.33,8.25,7.57c0.02,0.55-0.03,1.12-0.14,1.69l-0.16,0.82c-0.01,0.04-0.02,0.07-0.03,0.11
					c-0.91,2.79-2.64,3.92-4.32,5.01c-1.93,1.26-3.93,2.56-5.13,6.19c0,0,0.02,0.02,0.05,0.03c0.02,0.01,0.03,0.01,0.04,0.01
					c0.07,0,0.11-0.03,0.11-0.05c1.09-3.3,2.82-4.66,4.66-5.87c0.16-0.11,0.34-0.16,0.52-0.16c0.29,0,0.58,0.14,0.76,0.39
					c0.44,0.6,1.46,2.17,1.48,3.78c0,0,0.03,0.03,0.09,0.04c0.08,0,0.11-0.04,0.12-0.05c-0.02-1.62-1.06-3.2-1.51-3.8
					c-0.15-0.2-0.21-0.46-0.17-0.71c0.04-0.25,0.17-0.47,0.38-0.62c1.15-0.84,2.32-1.9,3.05-4.03c0.09-0.26,0.29-0.47,0.55-0.57
					c0.11-0.04,0.23-0.06,0.34-0.06c0.16,0,0.31,0.04,0.45,0.11c1.92,1.04,4.19,3.95,3.8,7.44c3.73,1.15,5.46,4.41,4.66,8.89
					c-0.07,0.37-0.35,0.67-0.71,0.75c-0.07,0.02-0.14,0.03-0.22,0.03c-0.3,0-0.58-0.14-0.76-0.38c-1.33-1.8-4.46-2.27-6.09-2.27
					c-0.09,0-0.17,0-0.25,0l-0.08,0c-2.94,0.11-5.64,1.39-7.6,3.59c-0.18,0.2-0.44,0.32-0.71,0.32c-0.04,0-0.08,0-0.12-0.01
					c-0.19-0.02-0.4-0.04-0.62-0.04c-1.24,0-2.75,0.4-4.04,1.08c-1.09,0.57-1.99,1.31-2.68,2.19C77.71,43.67,77.43,43.8,77.14,43.8z
					"/>
			</g>
			<g>
				<path class="st2" d="M83.92,12.96c3.93,0,7.18,2.94,7.3,6.66c0.02,0.48-0.03,0.98-0.12,1.47l-0.16,0.82
					c-0.81,2.47-2.26,3.42-3.94,4.52c-1.97,1.29-4.21,2.75-5.51,6.69c-0.17,0.52,0.14,1.07,0.69,1.23c0.1,0.03,0.2,0.04,0.3,0.04
					c0.01,0,0.03,0,0.04,0c0.44-0.01,0.84-0.28,0.97-0.7c1-3.05,2.58-4.25,4.28-5.38c0.37,0.51,1.28,1.89,1.3,3.23
					c0.01,0.54,0.47,0.97,1.05,0.97c0.01,0,0.01,0,0.02,0c0.01,0,0.01,0,0.02,0c0.57-0.02,1.03-0.46,1.02-1
					c-0.03-1.9-1.2-3.69-1.69-4.35c1.35-0.98,2.61-2.22,3.39-4.48c1.91,1.03,3.96,4.06,3.16,7.3c4.11,0.84,5.52,4.08,4.81,8.02
					c-1.54-2.08-4.93-2.66-6.85-2.66c-0.1,0-0.19,0-0.28,0c-0.03,0-0.05,0-0.08,0c-3.23,0.12-6.15,1.5-8.28,3.91
					c-0.23-0.03-0.48-0.05-0.74-0.05c-1.37,0-3.02,0.42-4.48,1.19c-1.22,0.64-2.23,1.47-2.99,2.45c-0.34-0.87-0.55-1.78-0.58-2.72
					c-0.04-1.16,0.17-2.3,0.63-3.39l0.17-0.41l-0.21-0.39c-0.43-0.8-0.66-1.66-0.69-2.54c-0.03-0.94,0.17-1.85,0.59-2.71l0.22-0.45
					l-0.01-0.02c0.75-1.29,1.92-2.64,2.84-3.38c0.24-0.2,0.48-0.38,0.7-0.56c2.46-1.95,4.25-3.37,3.98-7.41
					c-0.03-0.52-0.48-0.92-1.04-0.92c-0.03,0-0.05,0-0.08,0c-0.58,0.04-1.02,0.51-0.98,1.05c0.2,3.05-0.95,3.96-3.24,5.77
					c-0.23,0.18-0.47,0.37-0.72,0.57c-0.61,0.5-1.55,1.43-2.39,2.55c-0.04-0.25-0.07-0.5-0.08-0.76c-0.04-1.18,0.29-2.35,0.96-3.36
					l0.3-0.46l-0.25-0.48c-0.45-0.87-0.69-1.8-0.72-2.76c-0.12-3.8,3.07-6.99,7.12-7.12C83.75,12.96,83.83,12.96,83.92,12.96
					 M83.92,11.07c-0.1,0-0.21,0-0.31,0c-5.09,0.16-9.1,4.23-8.95,9.07c0.03,1.07,0.27,2.1,0.69,3.08c-0.69,1.23-1.03,2.6-0.98,3.99
					c0.01,0.33,0.05,0.67,0.11,1.02c0.1,0.59,0.48,1.09,1,1.36c-0.01,0.02-0.02,0.05-0.02,0.07l-0.1,0.2
					c-0.56,1.15-0.82,2.36-0.78,3.6c0.03,1.03,0.27,2.03,0.71,2.97c-0.45,1.21-0.65,2.47-0.61,3.76c0.04,1.12,0.28,2.24,0.72,3.35
					c0.25,0.63,0.82,1.08,1.49,1.18c0.09,0.01,0.18,0.02,0.27,0.02c0.58,0,1.13-0.26,1.49-0.72c0.61-0.78,1.41-1.43,2.38-1.94
					c1.16-0.61,2.5-0.97,3.6-0.97c0.18,0,0.34,0.01,0.49,0.03c0.08,0.01,0.16,0.02,0.25,0.02c0.54,0,1.05-0.23,1.41-0.63
					c1.79-2.01,4.25-3.17,6.94-3.27l0.04,0l0.03,0c0.07,0,0.14,0,0.22,0c1.95,0,4.41,0.65,5.33,1.89c0.36,0.49,0.93,0.76,1.52,0.76
					c0.14,0,0.29-0.02,0.43-0.05c0.74-0.17,1.3-0.77,1.43-1.51c0.83-4.65-0.92-8.23-4.61-9.71c0.04-3.31-1.97-6.34-4.33-7.61
					c-0.23-0.12-0.47-0.2-0.72-0.22c0.05-0.42,0.07-0.83,0.05-1.25c-0.07-2.31-1.08-4.46-2.84-6.06
					C88.55,11.93,86.29,11.07,83.92,11.07L83.92,11.07z"/>
			</g>
		</g>
		<g>
			<g>
				<path class="st6" d="M83.69,75c-4.02,0-7.26-2.98-7.38-6.78c-0.04-1.27,0.29-2.54,0.96-3.66c-0.43-0.81-0.66-1.68-0.69-2.58
					c-0.01-0.32,0.01-0.64,0.07-1.03c0.05-0.35,0.29-0.64,0.62-0.76c0.1-0.04,0.21-0.05,0.32-0.05c0.23,0,0.46,0.09,0.64,0.25
					c0.75,0.69,1.54,1.31,2.35,1.93c0.44,0.34,0.82,0.63,1.13,0.9c2.96,2.53,1.59,5.32,1.42,5.63c-0.01,0.01,0,0.02,0.02,0.03
					c0.02,0.01,0.04,0.02,0.07,0.02c0.05,0,0.1-0.03,0.11-0.05c0.58-1.03,1.03-3.54-1.44-5.65c-0.3-0.26-0.73-0.59-1.14-0.9
					c-0.95-0.73-2.25-1.73-3.2-2.79c-0.01-0.01-0.02-0.02-0.03-0.03l-0.3-0.37c-1.15-1.41-1.79-3.09-1.85-4.87
					c-0.03-0.89,0.11-1.8,0.4-2.71c0.11-0.34,0.41-0.59,0.77-0.64c0.04-0.01,0.09-0.01,0.13-0.01c0.31,0,0.61,0.15,0.78,0.42
					c0.74,1.1,1.72,1.86,2.39,2.2c0.02,0.01,0.04,0.02,0.07,0.02c0.04,0,0.07-0.01,0.09-0.02c-0.02-0.03-0.05-0.07-0.11-0.11
					c-3.49-2.47-3.6-5.3-3.08-7.24c0.76-2.81,2.76-4.23,3.89-4.82c1.27-0.67,2.68-1.05,3.88-1.05c0.44,0,0.81,0.05,1.1,0.16
					l0.11,0.04l0.05-0.07c2.64-3.3,6.03-3.91,7.82-3.98c0.12,0,0.23-0.01,0.33-0.01c2.14,0,4.16,0.64,5.55,1.75
					c0.01,0.01,0.11,0.1,0.11,0.1c0.05,0.04,0.12,0.11,0.19,0.17l0.05,0.05c1.79,1.64,2.83,3.85,2.9,6.2c0.06,1.76-0.43,3.48-1.4,5
					l-0.27,0.42c-0.03,0.08-0.07,0.16-0.12,0.23c-0.75,1.02-1.81,2.07-2.31,2.53c0.01,0.04,0.05,0.05,0.09,0.05
					c0.03,0,0.07-0.01,0.1-0.03c0.04-0.04,0.98-0.88,1.85-1.93c0.18-0.22,0.45-0.34,0.73-0.34c0.05,0,0.11,0,0.16,0.01
					c0.33,0.06,0.61,0.29,0.73,0.6c1.39,3.76,0.75,8.25-1.67,11.73c-1.76,2.53-4.13,3.98-6.51,3.98c0,0,0,0,0,0
					c-1.04,0-2.05-0.28-2.99-0.83c-1.15-0.67-1.89-1.81-2.03-3.14c-0.25-2.45,1.47-5.61,1.67-5.96c0-0.01,0.01-0.02,0.02-0.03
					c2.14-3.54,2.99-5.3,2.2-7.21c-0.38-0.91-1.07-1.61-1.99-2.02c-0.42-0.19-0.65-0.66-0.53-1.11c0.54-2.05,0.07-4,0.04-4.08
					c0,0-0.04-0.03-0.1-0.03c-0.01,0-0.02,0-0.04,0c-0.05,0.01-0.07,0.04-0.07,0.04c0.06,0.22,0.48,2.12-0.05,4.1
					c-0.11,0.41-0.49,0.7-0.91,0.7c-0.01,0-0.02,0-0.04,0c-0.06,0-0.13,0-0.19,0c-1.38,0-2.79,0.54-3.85,1.49
					c0.01,0.04,0.05,0.05,0.09,0.05c0.02,0,0.06,0,0.1-0.03c1.03-0.91,2.36-1.44,3.66-1.44c0.32,0,0.63,0.03,0.93,0.09
					c1.28,0.27,2.25,1.06,2.74,2.23c0.68,1.63,0.1,3.2-1.21,5.53c-1.11,1.97-3.72,2.85-5.82,2.85c-0.42,0-1.01-0.04-1.5-0.22
					c-0.02-0.01-0.04-0.01-0.06-0.01c-0.06,0-0.1,0.03-0.11,0.05c0,0,0.01,0.01,0.04,0.02c0.42,0.16,1.01,0.25,1.67,0.25
					c0.08,0,0.16,0,0.25,0c0.8-0.03,1.63-0.17,2.4-0.43c0.1-0.03,0.2-0.05,0.3-0.05c0.25,0,0.5,0.1,0.69,0.29
					c0.25,0.26,0.33,0.65,0.2,0.99c-0.59,1.52-0.84,2.88-0.73,3.93c0.13,1.3,0.88,2.45,2.05,3.16c0.63,0.38,1.34,0.62,2.12,0.71
					c0.33,0.04,0.62,0.24,0.76,0.54c0.14,0.3,0.11,0.65-0.08,0.93c-0.79,1.16-1.96,2.05-3.29,2.51l-0.04,0.01l-0.01,0.02
					c-1.18,2.47-3.68,4.06-6.53,4.15C83.86,74.99,83.77,75,83.69,75z"/>
			</g>
			<g>
				<path class="st2" d="M94.01,37.33c1.93,0,3.74,0.56,4.96,1.54l0.08,0.07c0.08,0.06,0.14,0.13,0.22,0.2
					c1.61,1.48,2.54,3.44,2.6,5.55c0.05,1.57-0.38,3.11-1.25,4.46l-0.38,0.59l0.02,0.02c-0.71,0.97-1.74,1.98-2.18,2.39
					c-0.42,0.38-0.43,1-0.03,1.39c0.2,0.2,0.48,0.3,0.75,0.3c0.01,0,0.02,0,0.04,0c0.25-0.01,0.5-0.1,0.69-0.28
					c0.16-0.14,1.08-0.99,1.94-2.03c2.44,6.59-2.25,14.44-7.29,14.44c-0.84,0-1.69-0.22-2.52-0.7c-0.9-0.52-1.46-1.42-1.56-2.42
					c-0.23-2.26,1.55-5.39,1.55-5.4c2.06-3.41,3.27-5.63,2.26-8.06c-0.48-1.14-1.35-2.02-2.48-2.52c0.61-2.3,0.07-4.45,0.05-4.55
					c-0.12-0.45-0.55-0.75-1.02-0.75c-0.08,0-0.16,0.01-0.25,0.03c-0.56,0.13-0.91,0.67-0.77,1.19c0,0.02,0.45,1.79-0.05,3.62
					c-0.07,0-0.15,0-0.22,0c-1.59,0-3.23,0.61-4.48,1.73c-0.42,0.38-0.44,1-0.04,1.4c0.21,0.2,0.48,0.31,0.76,0.31
					c0.26,0,0.52-0.09,0.73-0.27c0.87-0.77,1.98-1.2,3.03-1.2c0.25,0,0.5,0.02,0.74,0.07c0.68,0.14,1.59,0.55,2.06,1.67
					c0.49,1.17,0.14,2.38-1.16,4.71c-0.98,1.73-3.39,2.36-4.99,2.36c-0.48,0-0.89-0.06-1.16-0.16c-0.13-0.05-0.26-0.07-0.39-0.07
					c-0.42,0-0.81,0.23-0.98,0.62c-0.22,0.51,0.04,1.08,0.58,1.28c0.52,0.2,1.22,0.31,2,0.31c0.09,0,0.18,0,0.28,0
					c0.84-0.03,1.77-0.18,2.67-0.47c-0.49,1.27-0.94,2.91-0.79,4.37c0.17,1.59,1.08,3,2.5,3.87c0.76,0.46,1.61,0.74,2.51,0.84
					c-0.66,0.97-1.65,1.74-2.82,2.14l-0.42,0.14l-0.18,0.38c-1.03,2.15-3.21,3.53-5.7,3.61c-0.07,0-0.15,0-0.22,0
					c-3.46,0-6.33-2.59-6.43-5.86c-0.03-1.09,0.25-2.18,0.83-3.14l0.27-0.45l-0.25-0.47c-0.36-0.68-0.56-1.42-0.58-2.18
					c-0.01-0.29,0.02-0.58,0.06-0.86c0.81,0.75,1.69,1.42,2.42,1.99c0.42,0.33,0.81,0.62,1.1,0.87c2.4,2.05,1.33,4.22,1.2,4.46
					c-0.27,0.48-0.07,1.07,0.44,1.32c0.16,0.08,0.32,0.11,0.49,0.11c0.01,0,0.02,0,0.03,0c0.36-0.01,0.71-0.2,0.9-0.53
					c0.71-1.27,1.28-4.33-1.65-6.83c-0.31-0.27-0.72-0.58-1.18-0.94c-0.96-0.74-2.2-1.69-3.08-2.67l-0.3-0.37
					c-1.02-1.25-1.59-2.74-1.64-4.3c-0.03-0.82,0.11-1.62,0.36-2.39c0.84,1.24,1.94,2.1,2.74,2.51c0.16,0.08,0.33,0.12,0.5,0.12
					c0.01,0,0.03,0,0.04,0c0.36-0.01,0.7-0.19,0.88-0.51c0.28-0.47,0.07-1.01-0.4-1.34c-0.96-0.68-3.65-2.72-2.71-6.23
					c0.6-2.23,2.12-3.55,3.42-4.23c1.31-0.69,2.59-0.94,3.44-0.94c0.34,0,0.61,0.04,0.79,0.1l0.74,0.26l0.47-0.59
					c2.4-3.01,5.49-3.56,7.11-3.63C93.81,37.33,93.91,37.33,94.01,37.33 M94.01,35.44L94.01,35.44c-0.12,0-0.24,0-0.35,0.01
					c-1.89,0.07-5.38,0.69-8.19,3.93c-0.27-0.05-0.56-0.07-0.87-0.07c-1.35,0-2.93,0.42-4.32,1.16c-1.26,0.66-3.52,2.25-4.37,5.41
					c-0.27,1-0.45,2.51,0.12,4.16c-0.54,0.2-0.96,0.63-1.15,1.19c-0.33,1.02-0.48,2.04-0.45,3.04c0.06,1.95,0.75,3.79,1.99,5.34
					c-0.38,0.3-0.63,0.73-0.7,1.22c-0.06,0.44-0.09,0.82-0.07,1.19c0.03,0.87,0.22,1.72,0.57,2.52c-0.59,1.16-0.88,2.44-0.84,3.72
					c0.14,4.32,3.79,7.7,8.32,7.7c0.09,0,0.19,0,0.28,0c3.08-0.1,5.79-1.76,7.18-4.36c1.39-0.55,2.6-1.52,3.44-2.75
					c0.21-0.3,0.32-0.65,0.33-1.01c2.43-0.26,4.79-1.81,6.55-4.35c2.59-3.73,3.27-8.55,1.78-12.6c-0.16-0.43-0.47-0.78-0.85-1
					c0.95-1.6,1.43-3.41,1.37-5.25c-0.08-2.61-1.22-5.05-3.2-6.87l-0.04-0.04c-0.06-0.06-0.14-0.13-0.23-0.21l-0.06-0.05
					c-0.02-0.02-0.05-0.04-0.07-0.06C98.6,36.15,96.36,35.44,94.01,35.44L94.01,35.44z"/>
			</g>
		</g>
	</g>
</g>
<g>
	<g>
		<g>
			<path class="st2" d="M31.77,120.05h-7l-1.35,4.13h-4.25l6.85-19.33h4.48l6.83,19.33h-4.22L31.77,120.05z M30.78,116.91
				l-1.87-5.74c-0.21-0.62-0.44-1.46-0.59-2.2h-0.09c-0.12,0.73-0.38,1.58-0.59,2.23l-1.85,5.71H30.78z"/>
		</g>
		<g>
			<path class="st2" d="M41.12,108.42c-1.44,0-2.58-1.03-2.58-2.49c0-1.44,1.14-2.49,2.58-2.49c1.44,0,2.61,1.05,2.61,2.49
				C43.73,107.39,42.55,108.42,41.12,108.42z M39.1,110.35l4.01-0.12v13.94H39.1V110.35z"/>
		</g>
		<g>
			<path class="st9" d="M63.27,124.18h-3.95l-6.24-9.32c-0.76-1.17-1.76-2.84-2.23-3.6l-0.18,0.09c0.12,0.44,0.15,1.93,0.15,3.49
				l0.03,9.35h-4.01v-19.33h3.69l6.53,9.78c1,1.49,1.87,3.08,2.2,3.66l0.18-0.09c-0.09-0.53-0.18-1.99-0.18-3.6l-0.03-9.75h4.04
				V124.18z"/>
		</g>
		<g>
			<path class="st9" d="M80.52,110.35l-5.24,13.83H70.8l-5.3-13.83h4.31l2.87,8.2c0.23,0.73,0.32,1.08,0.44,1.82h0.09
				c0.15-0.79,0.2-1.17,0.44-1.82l2.87-8.2H80.52z"/>
		</g>
		<g>
			<path class="st9" d="M92.74,119.72l1.9,2.2c-0.94,1.23-2.96,2.43-5.95,2.43c-4.66,0-7.44-2.93-7.44-7.09
				c0-4.13,2.78-7.09,7.06-7.09c4.04,0,6.36,2.75,6.36,6.53c0,0.88-0.12,1.46-0.12,1.46h-9.32c0.35,1.85,1.64,3.13,3.93,3.13
				C91.13,121.31,92.15,120.37,92.74,119.72z M85.24,116.09h5.77c-0.03-1.64-1.03-2.87-2.7-2.87
				C86.73,113.22,85.53,114.25,85.24,116.09z"/>
		</g>
		<g>
			<path class="st9" d="M104.95,114.69c0-1.11-0.82-1.82-2.23-1.82c-1.32,0-2.05,0.62-2.05,1.44c0,2.78,8.09,0.59,8.11,5.92
				c0.03,2.49-2.26,4.13-6.03,4.13c-4.19,0-6.09-1.76-6.44-2.05l1.87-2.43c0.29,0.26,2.34,1.67,4.42,1.67
				c1.41,0,2.08-0.41,2.08-1.08c0-2.23-7.73-0.88-7.73-5.92c0-2.69,2.34-4.36,5.92-4.36c3.34,0,5.68,1.61,5.68,3.87
				c0,0.56-0.12,0.94-0.12,0.94l-3.54,0.21C104.93,115.07,104.95,114.89,104.95,114.69z"/>
		</g>
		<g>
			<path class="st9" d="M121.92,123.36c0,0-1.46,1-4.13,1c-3.63,0-5.54-1.96-5.54-5.89v-5.07h-2.11v-3.05h2.28v-3.9l3.87-0.15v4.04
				h4.86v3.05h-4.86v4.89c0,1.85,0.7,2.67,2.26,2.67c1.41,0,2.23-0.73,2.23-0.73L121.92,123.36z"/>
		</g>
	</g>
	<path class="st9" d="M60.66,128.23l-2.49,2.57l-2.14-2.57h-9.12l8.54,10.27c0.61,0.73,1.49,1.17,2.41,1.21
		c0.93,0.04,1.82-0.34,2.48-1.01l10.13-10.47H60.66z"/>
	<path class="st9" d="M91.26,103.81l2.49-2.57l2.14,2.57h9.12l-8.54-10.27c-0.61-0.73-1.49-1.17-2.41-1.21
		c-0.93-0.04-1.82,0.34-2.48,1.01l-10.13,10.47H91.26z"/>
	<path class="st9" d="M17,128.23L5.93,138.38c-1.26,1.15-1.55,3.17-0.68,4.7c0.62,1.08,1.7,1.73,2.89,1.73
		c0.81,0,1.6-0.31,2.21-0.87l17.14-15.71H17z"/>
	<path class="st9" d="M141.45,81.43c-0.69-1.08-1.88-1.69-3.11-1.57l-10.59,1.02c-1.84,0.18-3.2,1.88-3.08,3.88
		c0.06,1.03,0.53,1.98,1.27,2.62c0.68,0.58,1.54,0.86,2.42,0.78l0.53-0.05l-16.47,15.69c0,0.01,0,0.01,0,0.02h10.24l9.92-9.45
		l-0.19,0.79c-0.44,1.85,0.49,3.72,2.16,4.35c0.36,0.14,0.75,0.21,1.13,0.21c1.55,0,2.91-1.13,3.29-2.75l2.96-12.55
		C142.18,83.38,142,82.29,141.45,81.43z"/>
</g>
</svg>
