<?xml version="1.0" encoding="utf-8"?>
<!-- Generator: Adobe Illustrator 27.8.0, SVG Export Plug-In . SVG Version: 6.00 Build 0)  -->
<svg version="1.1" id="Camada_1" xmlns="http://www.w3.org/2000/svg" xmlns:xlink="http://www.w3.org/1999/xlink" x="0px" y="0px"
	 viewBox="0 0 200 200" style="enable-background:new 0 0 200 200;" xml:space="preserve">
<style type="text/css">
	.st0{fill:#2D2D2D;}
	.st1{fill:#3B8701;}
	.st2{fill:#FFFFFF;}
	.st3{fill:#3C3D3B;}
	.st4{fill-rule:evenodd;clip-rule:evenodd;fill:#FDFDFD;}
</style>
<path class="st0" d="M148.89,198.11H51.21c-26.79,0-48.51-21.72-48.51-48.51V51.92c0-26.79,21.72-48.51,48.51-48.51h97.68
	c26.79,0,48.51,21.72,48.51,48.51v97.68C197.4,176.39,175.68,198.11,148.89,198.11z"/>
<g>
	<path class="st2" d="M55.75,84.27c-3.18,0-5.7,2.47-5.7,5.65v27.34c0,3.13,2.52,5.66,5.7,5.66c3.08,0,5.65-2.52,5.65-5.66V89.92
		C61.4,86.74,58.83,84.27,55.75,84.27z"/>
	<path class="st2" d="M144.35,84.27c-3.08,0-5.65,2.47-5.65,5.65v27.34c0,3.13,2.57,5.66,5.65,5.66s5.7-2.52,5.7-5.66V89.92
		C150.05,86.74,147.43,84.27,144.35,84.27z"/>
	<path class="st2" d="M66.45,84.27c0,0.14,0,0.14,0,0.28v50.42c0,4.68,3.78,8.46,8.46,8.46h9.07v14.39c0,3.13,2.52,5.65,5.7,5.65
		c3.08,0,5.61-2.52,5.61-5.65v-14.39h9.63v14.39c0,3.13,2.57,5.65,5.65,5.65c3.13,0,5.65-2.52,5.65-5.65v-14.39h9.07
		c4.67,0,8.5-3.78,8.5-8.46V84.54c0-0.14,0-0.14,0-0.28H66.45z"/>
	<path class="st2" d="M116.54,49.97l6.03-11.26l-1.21-0.65l-6.07,11.31c-4.58-2.34-9.72-3.74-15.19-3.74
		c-5.19,0-10.09,1.26-14.49,3.45l-5.84-11.02l-1.31,0.65l5.84,10.98c-10.42,5.47-17.52,16.59-17.62,29.21h66.82
		C133.46,66.41,126.59,55.62,116.54,49.97z M82.85,65.95c-1.78,0-3.13-1.4-3.13-3.13c0-1.68,1.36-3.08,3.13-3.08
		c1.78,0,3.18,1.4,3.18,3.08C86.03,64.55,84.63,65.95,82.85,65.95z M116.78,65.95c-1.78,0-3.18-1.4-3.18-3.13
		c0-1.68,1.4-3.08,3.18-3.08c1.73,0,3.18,1.4,3.18,3.08C119.96,64.55,118.51,65.95,116.78,65.95z"/>
</g>
</svg>
