<?xml version="1.0" encoding="utf-8"?>
<!-- Generator: Adobe Illustrator 27.8.0, SVG Export Plug-In . SVG Version: 6.00 Build 0)  -->
<svg version="1.1" id="Camada_1" xmlns="http://www.w3.org/2000/svg" xmlns:xlink="http://www.w3.org/1999/xlink" x="0px" y="0px"
	 viewBox="0 0 200 200" style="enable-background:new 0 0 200 200;" xml:space="preserve">
<style type="text/css">
	.st0{fill:#2D2D2D;}
	.st1{fill:#3B8701;}
	.st2{fill:#FFFFFF;}
	.st3{fill:#3C3D3B;}
	.st4{fill-rule:evenodd;clip-rule:evenodd;fill:#FDFDFD;}
</style>
<path class="st0" d="M149.36,198.11H51.68c-26.79,0-48.51-21.72-48.51-48.51V51.92c0-26.79,21.72-48.51,48.51-48.51h97.68
	c26.79,0,48.51,21.72,48.51,48.51v97.68C197.87,176.39,176.15,198.11,149.36,198.11z"/>
<g>
	<path class="st4" d="M80.21,69.79c4.02,0,7.65,0.98,11.18,2.3c2.26,0.64,4.32,1.47,6.57,2.16c4.02,0.98,7.94,0.49,11.77-0.98
		c2.75-1.03,5.49-2.15,8.34-2.84c8.68-1.96,16.43,0,23.34,5.44c1.96,1.33,3.68,2.99,5.2,4.95c0.59,0.69,0.59,0.83-0.2,1.28
		c-7.26,4.41-11.43,10.89-12.16,19.22c-0.69,7.9,1.67,14.81,7.16,20.5c2.35,2.51,5.2,4.46,8.34,5.79c0.88,0.29,0.93,0.49,0.54,1.32
		c-3.53,8.24-8.19,15.74-14.07,22.46c-1.96,2.16-4.22,4.27-6.96,5.74c-4.22,2.35-8.58,2.5-12.95,0.49
		c-1.86-0.64-3.58-1.62-5.44-2.25c-6.13-2.01-12.06-1.62-18,0.78c-1.57,0.69-3.04,1.38-4.61,1.86c-5.74,2.06-10.79,0.84-15.5-2.79
		c-2.84-2.3-5.2-4.95-7.26-7.94c-5-6.72-8.83-13.88-11.47-21.82c-1.91-5.54-3.09-11.33-3.43-17.26c-0.29-6.47,0.2-12.95,2.75-18.83
		c4.12-9.57,11.08-15.94,21.09-18.93C76.34,69.93,78.35,69.64,80.21,69.79z"/>
	<path class="st4" d="M122.87,45.17c-0.1,5.59-1.77,10.15-4.61,14.42c-3.29,4.95-7.65,8.19-13.24,10.05
		c-1.67,0.64-3.38,0.78-5.2,0.78c-0.69,0-0.98-0.15-1.03-0.93c-0.44-3.97,0.49-7.75,2.16-11.33c3.38-7.26,8.97-11.97,16.38-14.61
		c1.52-0.54,2.99-0.83,4.61-0.98c0.64-0.25,0.78,0.3,0.83,0.78C122.78,44.04,122.92,44.83,122.87,45.17z"/>
</g>
</svg>
